# xmcd
#
# Track frame offsets: 
#        187
#        18880
#        35415
#        54970
#        72905
#        89590
#        103067
#        121715
#        139540
#        157940
#
# Disc length: 2385 seconds
#
# Revision: 3
# Processed by: cddbd v1.5.2PL0 Copyright (c) Steve Scherf et al.
# Submitted via: ExactAudioCopy v0.95b4
#
DISCID=75094f0a,78093c0a
DTITLE=Robert Cray - Strong Persuader (MFSL)
DYEAR=1986
DGENRE=Blues
TTITLE0=Smoking Gun
TTITLE1=Guess I Showed Her
TTITLE2=Right Next Door
TTITLE3=Nothing But A Woman
TTITLE4=Still Around
TTITLE5=More Than I Can Stand
TTITLE6=Foul Play
TTITLE7=I Wonder
TTITLE8=Fantasized
TTITLE9=New Blood
EXTD=ROBERT CRAY "STRONG PERSUADER"\n\nMercury - Mobile Fidelity Sound
EXTD=Lab (MFSL]\nUltradisc II - UDCD 564\nDigitally remastered\n24 Ca
EXTD=rat Gold-CD
EXTT0=
EXTT1=
EXTT2=
EXTT3=
EXTT4=
EXTT5=
EXTT6=
EXTT7=
EXTT8=
EXTT9=
PLAYORDER=
